<svg id="SvgjsSvg1006" width="5000px" height="2368.4210526315787px" xmlns="http://www.w3.org/2000/svg" version="1.1" xmlns:xlink="http://www.w3.org/1999/xlink" xmlns:svgjs="http://svgjs.com/svgjs" viewBox="0 0 401.078125 189.984375">
    <defs id="SvgjsDefs1007"></defs>
    <g id="SvgjsG1009" transform="rotate(0 200.03125 38.734375)">
        <svg width="173" viewBox="0 0 97.99600219726562 43.890289306640625" xmlns="http://www.w3.org/2000/svg" version="1.1" xmlns:xlink="http://www.w3.org/1999/xlink" xmlns:svgjs="http://svgjs.com/svgjs" preserveAspectRatio="none" height="77.46875" x="113.53125" y="0">
            <g>
                <svg data-color="1" xmlns="http://www.w3.org/2000/svg" xmlns:xlink="http://www.w3.org/1999/xlink" version="1.1" x="0px" y="0px" viewBox="1.0017499923706055 28.29871368408203 97.99600219726562 43.890289306640625" enable-background="new 0 0 100 100" xml:space="preserve" width="97.99600219726562" height="43.890289306640625" fill="#78cffd">
                    <g>
                        <g>
                            <path d="M66.334,68.562c-0.292,0-0.59-0.041-0.885-0.129c-1.652-0.486-2.599-2.225-2.109-3.877l10.041-34.018    c0.488-1.652,2.22-2.602,3.876-2.109c1.653,0.488,2.599,2.225,2.11,3.877L69.326,66.323    C68.925,67.683,67.683,68.562,66.334,68.562z"></path>
                        </g>
                        <g>
                            <g>
                                <path d="M42.48,72.189c-0.617,0-1.234-0.182-1.766-0.545c-2.436-1.672-14.744-10.473-17.984-19.698     c-1.66-4.733-1.236-9.235,1.19-12.68c2.251-3.161,6.005-5.042,10.05-5.042c3.137,0,6.088,1.081,8.53,3.086     c2.446-2.006,5.442-3.123,8.522-3.123c4.035,0,7.789,1.887,10.041,5.047c2.438,3.45,2.863,7.961,1.199,12.714     c-3.336,9.525-16.537,18.689-18.031,19.703C43.703,72.012,43.092,72.189,42.48,72.189z M33.971,40.467     c-2.029,0-3.883,0.901-4.956,2.409c-1.225,1.737-1.367,4.229-0.394,7.002c1.908,5.438,8.954,11.717,13.865,15.36     c4.738-3.504,11.967-9.873,13.887-15.352c0.977-2.792,0.834-5.292-0.398-7.038c-1.076-1.511-2.93-2.417-4.951-2.417     c-2.105,0-4.178,1.027-5.688,2.82l-0.453,0.539c-0.596,0.701-1.467,1.106-2.385,1.106c-0.004,0-0.008,0-0.012,0     c-0.924-0.003-1.798-0.416-2.389-1.125l-0.441-0.532C38.128,41.432,36.156,40.467,33.971,40.467z"></path>
                            </g>
                            <g>
                                <path d="M15.896,68.381c-0.799,0-1.598-0.307-2.207-0.916L1.916,55.689c-1.219-1.219-1.219-3.195,0-4.413     l11.775-11.774c1.219-1.22,3.195-1.22,4.413,0c1.22,1.218,1.22,3.195,0,4.413l-9.567,9.569l9.566,9.568     c1.219,1.217,1.219,3.195,0,4.412C17.494,68.074,16.695,68.381,15.896,68.381z"></path>
                            </g>
                            <g>
                                <path d="M84.102,68.381c-0.799,0-1.598-0.307-2.207-0.916c-1.219-1.219-1.219-3.195,0-4.412l9.568-9.568     l-9.568-9.569c-1.217-1.218-1.217-3.195,0-4.414c1.221-1.218,3.195-1.219,4.414,0.001l11.773,11.774     c1.221,1.218,1.221,3.194,0,4.413L86.309,67.465C85.699,68.074,84.898,68.381,84.102,68.381z"></path>
                            </g>
                        </g>
                    </g>
                </svg>
            </g>
            <defs id="SvgjsDefs1008"></defs>
        </svg>
    </g>
    <g id="SvgjsG1011" transform="rotate(0 200.5390625 128.4140625)">
        <svg xmlns="http://www.w3.org/2000/svg" xmlns:xlink="http://www.w3.org/1999/xlink" width="401.078125" viewBox="1.25 10.5600004196167 401.0899963378906 35.89999771118164" overflow="visible" style="overflow: visible;" transform="" version="1.1" xmlns:svgjs="http://svgjs.com/svgjs" preserveAspectRatio="none" height="35.890625" x="0" y="110.46875" fill="#000000" stroke="none">
        
            <defs id="SvgjsDefs1012"></defs>
        </svg>
    </g>
</svg>